<?xml version="1.0" standalone="no"?>
<!DOCTYPE svg PUBLIC "-//W3C//DTD SVG 20010904//EN"
 "http://www.w3.org/TR/2001/REC-SVG-20010904/DTD/svg10.dtd">
<svg version="1.0" xmlns="http://www.w3.org/2000/svg"
 width="1280.000000pt" height="853.000000pt" viewBox="0 0 1280.000000 853.000000"
 preserveAspectRatio="xMidYMid meet">
<g transform="translate(0.000000,853.000000) scale(0.100000,-0.100000)"
fill="#000000" stroke="none">
<path d="M5165 6680 c-16 -4 -44 -14 -60 -22 -25 -13 -39 -14 -78 -5 -41 9
-49 8 -68 -9 -18 -16 -40 -19 -148 -22 -69 -1 -132 -2 -138 -1 -74 8 -206 -3
-225 -18 -7 -7 -34 -13 -58 -15 -37 -2 -45 -6 -45 -23 0 -24 -56 -55 -101 -55
-17 0 -46 -3 -64 -6 -44 -9 -18 -24 43 -24 35 0 47 -4 47 -15 0 -9 -9 -15 -25
-15 -14 0 -25 -5 -25 -11 0 -8 25 -10 83 -7 164 11 258 -22 315 -111 22 -33
41 -50 59 -54 49 -11 86 -49 85 -88 -1 -19 -1 -45 -1 -58 -1 -21 -5 -23 -30
-18 -38 8 -55 -11 -42 -44 16 -39 37 -59 60 -59 22 0 28 -19 11 -36 -16 -16
82 -104 115 -104 14 0 40 -7 57 -16 26 -14 32 -14 45 -2 8 8 15 26 16 39 1 13
10 35 18 49 9 14 23 38 30 55 8 16 28 36 44 44 17 8 38 18 48 23 10 5 27 6 37
3 26 -8 89 20 127 57 17 16 36 27 42 24 11 -7 126 9 179 26 39 12 42 28 5 29
-79 2 -95 11 -70 36 13 13 20 14 29 5 16 -16 28 -15 28 3 0 20 39 19 68 -1 13
-9 26 -13 29 -10 8 8 -17 36 -32 36 -25 0 -39 29 -27 55 9 20 16 24 41 19 54
-11 95 56 51 84 -25 15 -18 32 13 32 20 1 20 2 5 11 -25 14 -22 34 6 56 13 11
25 28 27 39 3 13 14 20 37 22 17 2 32 8 32 14 0 11 -68 6 -132 -8 -22 -5 -28
-3 -28 11 0 15 -7 17 -43 13 -28 -3 -50 0 -62 8 -14 10 -39 12 -102 7 -57 -4
-83 -3 -83 5 0 11 46 20 125 24 22 2 39 8 38 13 -2 6 -49 11 -110 12 -60 1
-121 3 -138 6 -16 2 -43 1 -60 -3z"/>
<path d="M3999 6666 c-2 -3 -40 -7 -83 -9 -43 -3 -83 -10 -89 -16 -6 -6 -36
-11 -66 -11 -80 0 -161 -11 -161 -22 0 -5 19 -9 43 -9 179 2 223 4 244 12 18
6 25 5 29 -6 9 -23 -3 -32 -49 -39 -32 -5 -47 -14 -60 -34 -12 -20 -17 -23
-17 -9 0 10 -12 22 -26 27 -37 14 -49 13 -34 -5 7 -8 19 -15 26 -15 26 0 14
-21 -16 -26 -33 -7 -39 -18 -14 -28 9 -4 14 -13 10 -21 -7 -19 44 -21 62 -3 9
9 12 9 12 0 0 -21 54 -14 68 9 7 11 30 28 50 36 20 9 31 18 25 20 -10 4 -10 7
0 17 15 16 58 27 117 31 48 3 108 22 133 43 8 7 43 18 78 24 l64 12 -80 7
c-188 16 -261 20 -266 15z"/>
<path d="M5828 6603 c7 -3 16 -2 19 1 4 3 -2 6 -13 5 -11 0 -14 -3 -6 -6z"/>
<path d="M3431 6577 c-12 -16 -5 -27 18 -27 9 0 24 -9 34 -20 19 -23 64 -26
114 -8 46 17 36 32 -26 40 -29 5 -61 13 -71 18 -26 14 -56 12 -69 -3z"/>
<path d="M9212 6583 c-28 -11 38 -44 95 -49 46 -3 52 -2 29 5 -16 6 -37 19
-48 30 -18 20 -48 25 -76 14z"/>
<path d="M6830 6524 c0 -9 -7 -25 -15 -34 -13 -14 -13 -19 -2 -28 10 -9 21 -4
47 23 37 38 37 40 -3 50 -22 6 -27 4 -27 -11z"/>
<path d="M6718 6518 c8 -8 17 -8 34 0 22 10 21 11 -11 11 -27 1 -32 -2 -23
-11z"/>
<path d="M3645 6450 c-4 -6 7 -10 27 -10 25 0 29 3 18 10 -19 13 -37 13 -45 0z"/>
<path d="M9440 6433 c-40 -24 -57 -28 -145 -30 -55 -1 -120 -7 -145 -12 -25
-6 -64 -13 -88 -16 -28 -5 -52 -16 -67 -33 -22 -23 -34 -27 -100 -30 -73 -4
-90 -12 -61 -29 8 -4 16 -15 18 -23 2 -8 8 -19 13 -23 6 -5 1 -6 -10 -3 -117
30 -117 30 -136 8 -20 -26 -65 -29 -96 -7 -21 15 -22 14 -21 -24 0 -32 4 -40
23 -45 l23 -6 -21 -41 c-30 -62 -109 -102 -124 -63 -3 9 5 26 20 42 20 21 23
31 16 44 -5 9 -11 44 -12 78 l-2 60 -33 0 c-24 0 -42 -9 -63 -29 -34 -34 -37
-66 -9 -81 24 -13 26 -38 4 -47 -8 -3 -48 4 -87 16 -89 26 -133 27 -146 4 -7
-13 -24 -19 -58 -20 -259 -9 -256 -9 -316 -38 -42 -19 -68 -26 -91 -22 -25 4
-35 1 -44 -14 -9 -14 -19 -18 -37 -13 -34 8 -85 -14 -85 -37 0 -18 -33 -35
-49 -25 -5 3 -14 -1 -21 -9 -28 -33 -102 -10 -121 39 -7 17 -17 34 -22 37 -6
4 -7 15 -3 24 4 12 13 15 29 11 12 -4 54 -9 92 -12 69 -5 110 6 90 24 -20 17
-132 51 -220 66 -55 9 -94 21 -101 31 -11 15 -40 18 -134 11 -25 -1 -52 -5
-60 -9 -18 -7 -73 -17 -116 -21 -44 -4 -138 -69 -226 -158 -47 -48 -85 -78
-98 -78 -28 0 -100 -37 -107 -56 -9 -23 22 -109 41 -112 9 -2 37 8 63 22 29
17 50 23 57 17 6 -5 26 -38 44 -74 l33 -64 34 16 c24 11 38 27 46 51 6 19 23
45 38 57 l26 22 -22 16 c-13 9 -23 27 -23 40 0 30 41 79 80 95 17 7 38 26 46
41 18 36 76 56 117 40 43 -17 34 -44 -28 -86 -51 -33 -55 -39 -55 -75 0 -50
18 -56 121 -39 73 12 81 11 97 -5 16 -16 16 -18 -7 -37 -17 -14 -39 -19 -82
-19 -58 0 -58 0 -48 -24 16 -34 -5 -70 -34 -61 -47 14 -52 11 -57 -29 -4 -32
-12 -44 -38 -59 -25 -15 -39 -17 -55 -10 -16 7 -37 5 -80 -9 -42 -13 -63 -16
-77 -8 -10 5 -33 10 -50 10 -17 0 -42 7 -55 16 -24 16 -25 15 -25 -4 0 -24
-27 -42 -63 -42 -14 0 -39 -15 -63 -40 -21 -22 -44 -40 -50 -40 -6 0 -31 -16
-55 -35 -24 -19 -51 -35 -60 -35 -9 0 -22 -7 -29 -15 -7 -8 -24 -15 -39 -15
l-26 0 26 -23 c47 -39 59 -67 49 -116 -4 -24 -14 -47 -21 -52 -8 -5 -57 -7
-110 -3 l-96 6 -5 -79 c-7 -103 -2 -133 25 -133 11 0 28 -7 37 -15 14 -13 25
-14 71 -3 60 13 99 41 99 71 0 32 38 84 70 97 19 8 32 22 36 39 9 37 29 50 73
44 26 -4 50 1 79 16 34 17 45 19 66 9 14 -6 28 -19 31 -28 5 -17 77 -80 91
-80 4 0 22 -11 40 -25 18 -14 35 -21 39 -16 3 6 -7 18 -21 28 -43 29 -114 106
-114 125 0 30 12 48 32 48 26 0 60 -19 76 -42 7 -10 39 -35 70 -54 65 -41 72
-50 72 -82 0 -31 37 -82 59 -82 14 0 17 6 13 29 -4 27 0 32 34 46 26 11 51 14
83 9 l44 -7 -7 33 c-5 28 1 44 40 107 30 48 53 75 69 79 32 8 83 -16 87 -40 5
-30 28 -32 28 -3 0 30 13 41 68 58 57 17 72 3 50 -44 l-16 -34 64 -46 c70 -51
84 -86 44 -107 -32 -17 -130 -14 -178 5 -51 21 -83 16 -187 -26 -11 -5 -33
-10 -50 -11 -27 -3 -30 -6 -26 -33 5 -43 17 -63 51 -80 23 -12 35 -13 50 -5
16 8 28 7 51 -4 23 -12 36 -13 51 -5 10 6 31 9 46 7 26 -3 27 -5 26 -63 0 -43
-7 -75 -25 -110 l-24 -50 -65 -3 c-36 -1 -81 -3 -100 -3 -52 -2 -108 11 -168
38 -65 31 -84 27 -93 -16 -11 -55 -29 -59 -114 -28 -21 8 -47 25 -57 36 -10
13 -34 25 -55 28 -56 8 -103 40 -103 68 0 13 4 26 9 30 6 3 6 17 0 35 -11 29
-12 29 -67 25 -32 -2 -90 -7 -131 -10 -53 -4 -87 -13 -122 -31 -41 -23 -57
-26 -109 -22 -58 4 -62 3 -75 -22 -7 -14 -25 -32 -40 -40 -33 -17 -55 -58 -55
-101 0 -24 -10 -40 -42 -71 -77 -70 -108 -103 -108 -112 0 -5 -16 -41 -36 -79
-30 -58 -34 -73 -26 -96 18 -47 20 -110 6 -164 -21 -77 -10 -139 32 -185 19
-20 44 -58 57 -83 13 -28 48 -70 86 -104 60 -54 66 -57 100 -49 20 4 68 8 106
9 48 1 83 8 110 22 87 44 153 37 176 -19 11 -28 15 -30 51 -24 33 5 42 2 65
-20 24 -24 25 -30 20 -87 -4 -34 -9 -78 -13 -97 -5 -31 -1 -42 35 -86 74 -94
125 -311 86 -370 -17 -27 -45 -121 -45 -155 0 -11 17 -57 39 -103 27 -58 43
-110 54 -180 9 -54 22 -105 31 -114 23 -27 76 -151 76 -181 0 -15 6 -35 13
-45 11 -16 19 -16 72 -7 33 6 82 14 109 17 38 4 57 14 92 46 69 64 126 155
132 211 4 43 9 51 43 73 43 27 48 49 28 129 -11 44 -11 45 31 92 23 26 57 58
77 69 58 36 67 56 60 143 -4 42 -13 94 -21 116 -7 22 -17 70 -21 107 -5 55 -3
75 13 111 28 64 111 173 186 244 52 49 73 80 110 157 24 52 48 111 52 131 7
41 18 40 -107 9 -31 -8 -66 -14 -77 -14 -23 0 -67 54 -57 70 9 15 -38 75 -75
97 -21 12 -34 31 -42 58 -6 22 -21 54 -34 71 -12 17 -25 53 -29 80 -4 27 -15
58 -25 69 -10 11 -21 31 -24 45 -4 14 -20 54 -36 90 -43 95 -43 111 -2 115 31
3 37 -2 68 -51 19 -29 39 -64 44 -76 6 -13 22 -38 35 -57 14 -19 25 -46 25
-62 0 -15 11 -41 25 -57 40 -48 83 -138 91 -189 4 -27 10 -58 15 -70 l8 -22
58 23 c110 44 173 78 183 96 5 10 27 24 47 30 39 13 123 85 123 106 0 7 12 26
26 43 31 37 26 64 -17 81 -17 7 -38 24 -46 37 l-16 24 -22 -21 c-12 -11 -38
-23 -57 -27 -31 -5 -40 -1 -64 27 -16 17 -36 44 -44 60 -8 15 -25 46 -37 68
-38 68 -24 107 34 100 20 -2 33 -13 49 -41 11 -20 36 -49 55 -63 29 -22 41
-25 79 -20 40 6 46 3 66 -21 22 -28 24 -28 150 -32 l127 -3 53 -55 c30 -30 54
-62 54 -72 0 -31 20 -41 51 -25 26 13 29 12 37 -3 5 -10 12 -52 15 -93 4 -49
19 -110 42 -175 20 -55 43 -120 51 -145 20 -62 28 -66 57 -28 27 36 39 86 41
164 l1 51 103 101 c56 55 102 105 102 110 0 17 42 42 70 42 14 0 36 7 48 16
31 21 48 12 67 -33 9 -21 24 -47 34 -58 30 -33 43 -66 43 -107 -1 -44 0 -44
34 -21 18 12 31 14 41 7 15 -9 50 -124 53 -174 2 -20 4 -18 12 13 6 22 16 37
25 37 16 0 74 -37 85 -55 3 -5 23 -27 43 -48 36 -37 55 -46 55 -27 0 5 19 21
41 36 l41 26 -4 59 c-3 48 -10 66 -36 96 -18 21 -41 55 -53 77 -18 33 -19 42
-8 67 6 16 25 41 42 55 26 22 37 25 74 19 34 -5 53 -1 93 19 27 14 65 28 84
32 24 4 50 21 81 55 25 26 45 53 45 59 0 5 14 29 30 52 31 42 38 72 20 83 -6
4 -8 15 -5 26 8 25 -20 123 -40 139 -22 18 -19 35 16 75 30 33 30 35 7 26 -19
-7 -29 -4 -56 20 -18 16 -32 35 -32 42 0 7 29 33 65 56 54 36 68 41 80 31 8
-7 15 -19 15 -26 0 -10 8 -12 29 -8 38 8 71 -11 71 -40 0 -13 9 -31 20 -41 14
-13 20 -31 20 -62 0 -44 7 -50 41 -33 27 15 24 50 -11 101 -16 24 -30 47 -30
51 0 4 16 22 35 39 19 18 35 38 35 44 0 7 16 25 36 40 26 20 43 26 62 22 35
-7 58 7 112 68 87 97 114 138 121 184 4 26 11 58 15 74 10 42 -10 58 -65 52
-39 -5 -50 -2 -73 19 -16 14 -28 29 -28 35 0 5 23 26 52 48 28 21 79 58 112
83 l61 45 115 6 c67 3 137 1 168 -5 49 -10 55 -9 70 10 56 67 160 105 194 70
22 -21 25 -20 64 9 43 33 64 32 64 -1 0 -14 -5 -35 -11 -46 -11 -20 -9 -20 27
-13 22 4 71 9 110 10 50 1 82 8 110 23 54 30 123 52 162 52 35 0 43 19 17 40
-23 19 -18 28 20 44 34 15 35 16 35 75 l0 60 -37 11 c-21 6 -77 13 -125 17
-84 6 -88 5 -107 -18 -18 -23 -21 -23 -53 -9 -23 11 -68 15 -152 15 -115 1
-119 1 -146 28 -25 26 -31 27 -127 27 -95 0 -125 6 -198 40 -25 12 -225 30
-245 22 -8 -3 -22 -15 -31 -26 -15 -18 -27 -20 -114 -18 -54 2 -101 5 -105 7
-4 3 -13 -2 -20 -10 -29 -35 -106 -6 -112 43 -3 25 -7 27 -63 34 -45 5 -69 3
-95 -9 -30 -14 -43 -14 -105 -3 -60 11 -131 17 -270 23 -16 0 -51 -3 -77 -7
-39 -7 -48 -6 -48 6 0 9 17 20 40 27 23 7 61 21 86 32 39 16 44 22 34 34 -9
11 -33 15 -86 15 -72 0 -154 17 -154 32 0 17 -47 6 -90 -19z m-740 -293 c0 -5
-4 -10 -10 -10 -5 0 -10 5 -10 10 0 6 5 10 10 10 6 0 10 -4 10 -10z"/>
<path d="M3266 6413 c-11 -11 -6 -23 9 -23 8 0 15 4 15 9 0 13 -16 22 -24 14z"/>
<path d="M3490 6406 c0 -16 37 -36 66 -36 25 0 15 18 -18 31 -18 7 -36 14 -40
17 -5 2 -8 -4 -8 -12z"/>
<path d="M2790 6400 c0 -6 4 -9 9 -6 4 3 23 1 41 -4 19 -5 29 -6 24 -1 -16 15
-74 24 -74 11z"/>
<path d="M10565 6390 c3 -5 17 -10 31 -10 14 0 22 4 19 10 -3 6 -17 10 -31 10
-14 0 -22 -4 -19 -10z"/>
<path d="M3660 6380 c-55 -6 -48 -7 48 -7 61 0 112 4 112 9 0 9 -59 8 -160 -2z"/>
<path d="M8074 6375 c-17 -8 -53 -34 -80 -59 l-49 -46 24 -20 c33 -28 41 -25
41 14 0 31 6 39 53 70 29 19 64 39 77 45 25 10 25 10 -5 10 -16 -1 -44 -7 -61
-14z"/>
<path d="M2507 6308 l-26 -33 22 -12 c12 -7 31 -12 42 -13 18 0 169 70 162 75
-1 2 -41 6 -88 10 l-86 7 -26 -34z"/>
<path d="M3401 6316 c-6 -7 -8 -21 -5 -30 6 -15 9 -15 23 -3 9 8 29 17 45 21
23 6 27 9 15 17 -21 13 -65 11 -78 -5z"/>
<path d="M3249 6299 c-16 -31 14 -49 55 -33 14 5 13 10 -6 30 -28 29 -34 30
-49 3z"/>
<path d="M3587 6292 c-23 -25 -21 -42 3 -42 10 0 28 -9 39 -21 31 -33 211 -45
257 -16 12 7 137 -50 185 -84 33 -24 37 -51 10 -70 -11 -8 -22 -24 -25 -36 -6
-18 2 -27 51 -56 32 -19 68 -38 80 -41 18 -6 21 -4 16 15 -7 24 -12 24 85 2
36 -9 25 14 -24 47 -46 32 -53 54 -23 73 12 7 29 4 63 -13 44 -21 49 -21 64
-7 18 18 11 22 -102 61 -33 12 -64 30 -70 41 -16 28 -48 53 -62 48 -7 -2 -18
5 -26 16 -9 13 -25 19 -44 19 -32 -1 -74 17 -74 32 0 14 -61 23 -73 11 -6 -6
-28 -11 -49 -11 -32 0 -40 4 -48 25 -7 19 -17 25 -40 25 -51 0 -73 -17 -66
-51 5 -24 2 -29 -14 -29 -28 0 -63 38 -57 61 7 26 -33 26 -56 1z"/>
<path d="M2713 6284 c-22 -10 -14 -21 17 -27 17 -4 30 -13 30 -21 0 -11 15
-16 57 -18 81 -4 85 -28 4 -28 -34 0 -61 -4 -61 -10 0 -5 15 -10 34 -10 19 0
38 -4 41 -10 8 -13 99 -12 150 1 49 13 49 13 106 4 38 -6 47 -4 52 9 5 11 -1
20 -18 28 -14 6 -27 19 -30 28 -9 27 -44 60 -66 60 -15 0 -19 -5 -14 -19 9
-28 -12 -35 -42 -16 -17 11 -37 15 -58 12 -18 -3 -37 -2 -41 3 -11 10 -144 21
-161 14z"/>
<path d="M3382 6229 c-16 -24 -12 -30 31 -45 51 -17 47 -39 -17 -91 -17 -15
-46 -17 -46 -4 0 5 -48 8 -107 7 -69 -1 -123 4 -150 13 -47 16 -73 5 -73 -30
0 -24 -15 -24 -47 1 -21 16 -34 18 -88 13 -70 -6 -115 1 -115 20 0 7 -35 19
-92 31 -99 19 -105 20 -183 13 -33 -3 -58 1 -74 10 -19 12 -31 13 -65 4 -22
-7 -54 -11 -71 -11 -48 3 -111 -7 -133 -21 -16 -10 -32 -10 -83 3 -89 22 -170
37 -194 35 -34 -3 -226 15 -303 28 -64 11 -82 10 -157 -7 -47 -11 -92 -26 -99
-34 -8 -8 -27 -19 -42 -24 -26 -10 -26 -11 -8 -25 10 -8 43 -22 72 -31 28 -9
52 -22 52 -29 0 -17 -67 -28 -113 -20 -46 9 -78 -1 -70 -21 5 -13 21 -15 87
-12 78 3 81 2 84 -20 5 -34 -15 -51 -69 -58 -35 -5 -53 -13 -60 -26 -14 -26
-4 -48 21 -48 11 0 20 -4 20 -10 0 -5 8 -10 17 -10 9 0 26 -9 38 -20 14 -13
42 -22 84 -26 l63 -7 -6 -29 c-3 -16 -2 -28 2 -26 62 30 82 44 82 59 0 35 122
111 143 90 12 -12 0 -31 -19 -31 -8 0 -14 -4 -14 -10 0 -18 40 -11 57 10 19
22 57 26 99 9 16 -5 63 -14 106 -20 50 -6 95 -19 123 -34 36 -21 48 -23 71
-15 25 10 30 7 58 -25 17 -19 52 -57 79 -85 26 -28 47 -54 47 -59 0 -6 25 -38
55 -73 31 -35 53 -69 50 -77 -3 -7 3 -20 12 -27 21 -16 37 -18 28 -5 -12 20
18 23 50 5 36 -19 58 -55 49 -79 -5 -11 -11 -12 -24 -5 -10 6 -20 10 -22 10
-2 0 -4 -28 -4 -62 -1 -35 -2 -95 -3 -135 -2 -75 13 -127 42 -152 10 -7 17
-21 17 -30 0 -33 52 -98 97 -120 37 -18 47 -30 70 -83 26 -59 27 -60 36 -34 7
22 14 27 36 24 20 -2 31 -14 51 -55 14 -28 44 -72 68 -97 23 -25 42 -49 42
-54 0 -5 20 -31 45 -57 54 -59 75 -101 75 -148 0 -43 25 -63 161 -131 81 -41
99 -47 117 -37 34 18 50 13 95 -28 39 -37 110 -71 148 -71 14 0 79 -81 79 -99
0 -4 19 -23 42 -41 l41 -34 -23 32 c-20 27 -22 39 -18 107 6 97 0 105 -88 105
l-65 0 6 58 c4 31 14 76 22 100 9 23 13 45 9 49 -14 15 -60 -13 -69 -42 -15
-47 -34 -62 -87 -69 -71 -9 -99 8 -138 86 -32 63 -32 63 -22 146 6 45 8 87 5
92 -11 18 16 59 60 89 42 28 54 32 104 29 41 -2 59 1 68 12 8 11 29 15 75 14
124 -2 163 -21 174 -83 10 -52 33 -96 46 -83 6 6 3 33 -11 79 -33 111 -31 118
48 193 80 76 93 97 85 139 -10 48 2 78 33 84 19 4 32 15 39 36 9 23 21 32 53
41 29 8 41 16 41 29 0 33 38 67 107 96 90 38 95 42 81 69 -6 11 -17 25 -24 29
-20 12 -17 26 9 38 17 7 13 8 -18 3 -22 -3 -57 -19 -77 -35 -67 -53 -84 -24
-19 32 97 84 84 79 190 79 65 0 103 4 116 14 11 7 36 19 57 25 50 16 55 37 16
61 -28 17 -34 17 -52 4 -11 -8 -26 -14 -33 -14 -19 0 -16 27 5 40 11 8 13 13
5 16 -32 14 -63 48 -87 97 -14 30 -35 62 -46 72 -19 17 -21 17 -55 -14 -41
-35 -49 -37 -98 -16 -29 12 -37 22 -43 50 -3 19 -10 35 -16 35 -5 0 -26 11
-46 25 -28 19 -49 25 -93 25 l-57 0 -4 -62 c-4 -50 -1 -65 14 -80 10 -10 18
-32 18 -52 0 -28 -7 -40 -36 -62 -35 -27 -36 -30 -30 -75 7 -51 -8 -79 -43
-79 -29 0 -81 59 -87 100 -6 36 -8 38 -60 48 -29 6 -76 23 -104 37 -27 14 -70
28 -95 32 -32 4 -49 12 -60 30 -9 13 -27 28 -41 33 -19 7 -24 17 -24 42 0 64
82 149 164 173 43 13 57 23 77 55 20 33 30 40 59 41 35 2 63 4 89 7 8 1 11 8
6 20 -4 9 -8 28 -9 42 -1 19 -7 26 -28 28 -22 3 -30 -2 -37 -21 -5 -13 -24
-36 -41 -51 -29 -24 -35 -25 -54 -13 -11 8 -22 24 -24 36 -4 24 -6 25 -31 9
-15 -9 -25 -6 -60 22 -22 18 -41 39 -41 46 0 12 -46 54 -59 54 -3 0 -12 -9
-19 -21z m224 -200 c3 -6 2 -15 -3 -20 -12 -12 -63 5 -63 21 0 13 57 13 66 -1z"/>
<path d="M3312 6151 c4 -13 18 -16 19 -4 0 4 -5 9 -11 12 -7 2 -11 -2 -8 -8z"/>
<path d="M790 6095 c0 -28 4 -35 19 -35 10 0 24 -7 31 -15 7 -9 18 -14 25 -11
6 2 29 -4 51 -15 43 -20 84 -25 84 -9 0 6 11 15 25 22 13 6 22 15 19 19 -8 13
-58 11 -73 -3 -10 -11 -17 -8 -34 14 -18 22 -112 68 -139 68 -5 0 -8 -16 -8
-35z"/>
<path d="M5790 6033 c-96 -14 -140 -28 -138 -43 6 -29 72 -35 145 -14 36 10
68 24 70 30 3 8 -42 38 -50 33 -1 -1 -13 -3 -27 -6z"/>
<path d="M3680 5985 c0 -28 18 -32 52 -14 21 11 21 12 3 25 -31 23 -55 18 -55
-11z"/>
<path d="M11256 5780 c-37 -27 -75 -52 -84 -55 -9 -3 -28 -21 -41 -40 l-23
-35 17 -71 18 -71 38 43 c21 24 38 47 39 52 0 4 11 12 25 17 14 5 28 18 32 27
3 10 12 25 19 34 11 12 11 22 2 46 -10 27 -8 34 17 67 15 20 23 36 18 36 -6 0
-40 -22 -77 -50z"/>
<path d="M6155 5720 c-8 -24 22 -77 46 -83 10 -3 24 -17 31 -32 11 -24 10 -29
-10 -45 -27 -22 -27 -31 -2 -53 29 -25 96 -23 110 3 9 17 6 27 -16 55 -14 19
-30 35 -34 35 -11 0 -63 90 -56 97 5 5 -47 43 -59 43 -2 0 -6 -9 -10 -20z"/>
<path d="M6591 5686 c-6 -7 -8 -21 -5 -31 7 -17 8 -17 21 1 24 33 10 62 -16
30z"/>
<path d="M6059 5602 c-19 -20 -33 -82 -18 -82 24 0 69 32 69 49 0 11 3 26 6
35 8 22 -36 20 -57 -2z"/>
<path d="M10687 5554 c-3 -6 -1 -39 6 -73 9 -45 16 -58 24 -50 8 8 8 20 1 43
-5 17 -13 44 -17 61 -4 16 -10 25 -14 19z"/>
<path d="M4541 5414 c-18 -41 -14 -45 46 -42 56 3 83 22 46 34 -10 3 -32 12
-49 19 -30 13 -32 12 -43 -11z"/>
<path d="M10675 5209 c-5 -14 -2 -25 6 -30 19 -12 22 -11 45 5 19 15 19 15 -1
30 -28 21 -42 20 -50 -5z"/>
<path d="M10636 5078 c-2 -7 -7 -26 -11 -42 -10 -47 -106 -129 -165 -140 -87
-18 -95 -32 -19 -35 36 -1 64 5 100 24 28 14 57 25 64 25 15 0 25 22 25 53 0
12 7 35 15 51 8 15 15 37 15 47 0 22 -19 35 -24 17z"/>
<path d="M2820 4618 c0 -9 5 -20 11 -23 17 -11 20 0 4 21 -13 17 -14 17 -15 2z"/>
<path d="M3955 4350 c3 -5 11 -10 16 -10 6 0 7 5 4 10 -3 6 -11 10 -16 10 -6
0 -7 -4 -4 -10z"/>
<path d="M4109 4299 c-20 -12 2 -30 29 -23 12 4 22 10 22 14 0 12 -36 18 -51
9z"/>
<path d="M9675 4300 c-3 -5 -1 -10 4 -10 6 0 11 5 11 10 0 6 -2 10 -4 10 -3 0
-8 -4 -11 -10z"/>
<path d="M10026 4203 c-3 -25 -4 -48 -2 -50 8 -9 38 67 32 82 -11 28 -23 15
-30 -32z"/>
<path d="M4047 3987 c-15 -7 -38 -30 -50 -52 -12 -22 -33 -44 -45 -50 -17 -8
-21 -15 -16 -30 4 -11 9 -48 11 -83 5 -61 4 -64 -46 -139 -52 -77 -60 -108
-40 -142 10 -14 8 -24 -11 -49 l-22 -30 20 -39 c43 -80 87 -174 146 -316 7
-17 39 -47 81 -75 38 -26 76 -58 83 -72 15 -28 8 -283 -9 -342 -5 -18 -12 -78
-16 -133 -4 -74 -14 -121 -35 -180 -16 -43 -28 -91 -27 -105 1 -14 -1 -39 -5
-57 -6 -25 -3 -36 13 -52 19 -19 19 -20 1 -92 -10 -40 -25 -76 -32 -80 -7 -5
-11 -22 -9 -44 2 -24 -3 -43 -15 -56 -15 -16 -15 -19 -1 -25 8 -3 18 -17 21
-32 17 -70 24 -77 72 -77 47 0 64 13 64 49 0 10 21 43 46 73 46 54 46 54 25
69 -31 22 -27 58 11 87 27 22 32 32 36 84 5 69 14 82 48 75 29 -5 44 10 44 45
0 23 5 26 80 37 20 4 46 13 59 22 19 14 22 22 16 53 -4 20 -14 44 -23 54 -23
26 -4 39 38 27 19 -6 43 -10 53 -10 24 0 75 56 82 92 4 15 26 48 50 74 48 50
50 55 60 125 4 34 14 54 38 76 43 40 95 69 140 77 32 6 41 14 63 58 35 69 54
147 54 221 0 60 2 65 60 146 33 46 62 99 66 117 8 43 -8 88 -32 92 -10 2 -35
20 -56 39 -37 36 -85 52 -161 53 -29 0 -40 5 -44 18 -5 20 -52 52 -76 52 -8 0
-20 -7 -27 -15 -21 -25 -41 -19 -34 10 6 23 3 25 -24 25 -39 0 -48 14 -29 44
14 21 14 28 -5 80 -27 72 -71 106 -137 106 -39 0 -49 5 -92 48 -117 116 -118
116 -201 118 -61 1 -82 5 -103 22 -37 30 -71 17 -67 -26 2 -16 -2 -33 -8 -37
-19 -12 -41 16 -38 48 4 35 -7 41 -45 24z"/>
<path d="M9350 3912 c0 -5 7 -15 15 -22 8 -7 15 -8 15 -2 0 5 -7 15 -15 22 -8
7 -15 8 -15 2z"/>
<path d="M8785 3888 c-9 -23 -3 -50 13 -56 14 -4 16 36 2 58 -8 12 -10 12 -15
-2z"/>
<path d="M10150 3880 c-7 -13 -7 -26 -2 -36 8 -14 11 -14 25 6 15 22 13 50 -4
50 -4 0 -13 -9 -19 -20z"/>
<path d="M9416 3783 c9 -49 39 -109 58 -116 27 -10 8 93 -22 126 -35 37 -44
34 -36 -10z"/>
<path d="M9879 3783 c-45 -48 -107 -103 -117 -103 -5 0 -14 -11 -20 -25 -8
-17 -20 -25 -37 -25 -20 0 -25 -5 -25 -26 0 -14 6 -38 14 -52 8 -15 17 -35 20
-44 3 -10 20 -19 43 -23 21 -3 53 -10 72 -16 37 -12 51 -2 51 37 0 12 7 27 15
34 8 7 15 20 15 29 0 9 7 26 15 38 11 16 13 28 5 48 -14 37 -12 78 4 101 13
17 12 21 -1 37 -21 22 -24 22 -54 -10z"/>
<path d="M9270 3764 c0 -3 20 -29 44 -57 44 -53 51 -64 106 -174 29 -57 101
-143 121 -143 14 0 11 88 -3 97 -16 10 -47 55 -73 107 -11 21 -36 49 -55 61
-19 12 -54 43 -77 69 -37 41 -63 57 -63 40z"/>
<path d="M10382 3538 c7 -19 38 -22 38 -4 0 10 -9 16 -21 16 -12 0 -19 -5 -17
-12z"/>
<path d="M9996 3514 c-3 -9 -6 -25 -6 -36 0 -17 3 -18 15 -8 8 7 22 10 30 6
19 -7 19 4 -1 32 -18 26 -30 28 -38 6z"/>
<path d="M10510 3475 l-41 -34 45 -20 c52 -23 81 -68 72 -113 -4 -19 -2 -27 5
-22 6 3 24 -3 40 -15 39 -29 77 -28 88 3 19 49 59 43 113 -18 46 -52 59 -42
18 15 -17 24 -29 48 -26 55 10 27 -134 144 -178 144 -6 0 -22 6 -36 13 -52 27
-58 27 -100 -8z"/>
<path d="M9598 3328 c7 -9 34 -18 60 -21 26 -3 62 -9 80 -12 21 -5 32 -3 32 4
0 11 -20 17 -85 25 -22 2 -53 8 -70 12 -26 6 -28 5 -17 -8z"/>
<path d="M10687 3134 c-4 -4 -7 -38 -7 -76 0 -87 -20 -138 -53 -138 -14 0 -30
7 -37 15 -7 8 -18 15 -24 15 -6 1 -31 18 -55 40 -42 36 -44 41 -33 65 19 42
15 54 -28 65 -29 8 -45 7 -62 -1 -13 -7 -30 -15 -38 -19 -8 -3 -23 -23 -33
-43 -21 -41 -48 -48 -79 -20 -15 13 -23 14 -43 5 -14 -7 -29 -22 -34 -35 -5
-13 -22 -35 -38 -48 -15 -14 -37 -42 -48 -64 -22 -41 -67 -75 -102 -75 -12 0
-25 -4 -28 -10 -3 -5 -15 -10 -27 -10 -29 0 -98 -72 -97 -101 1 -59 19 -160
40 -229 12 -41 23 -95 23 -120 1 -42 3 -45 29 -48 15 -2 47 6 71 17 23 12 59
21 80 21 21 0 48 8 64 20 34 25 146 60 192 60 80 0 109 -17 167 -99 2 -3 17 9
34 25 24 23 32 26 39 14 5 -8 7 -17 4 -22 -3 -4 8 -27 23 -50 15 -24 33 -56
39 -73 14 -40 71 -61 120 -43 26 9 36 9 49 -2 13 -11 21 -10 48 3 17 9 39 18
49 21 9 2 19 20 23 38 4 18 25 69 46 112 49 98 62 155 54 223 -5 43 -16 65
-60 122 -30 39 -61 83 -69 100 -9 16 -31 41 -50 56 -27 20 -36 38 -50 92 -9
37 -24 78 -34 91 -29 41 -31 46 -44 80 -7 19 -16 30 -21 26z"/>
<path d="M7803 3063 c-25 -42 -65 -83 -79 -83 -27 0 -43 -40 -37 -94 4 -38 1
-61 -11 -85 -15 -27 -15 -40 -6 -86 12 -58 31 -74 63 -52 45 30 135 427 97
427 -5 0 -17 -12 -27 -27z"/>
<path d="M11696 2153 c-8 -36 16 -90 31 -71 6 7 14 23 17 36 4 12 12 22 17 22
16 0 10 17 -8 23 -10 2 -25 8 -35 12 -12 5 -18 -1 -22 -22z"/>
<path d="M10790 2027 c0 -7 7 -22 15 -33 15 -19 15 -19 35 5 28 33 25 41 -15
41 -22 0 -35 -5 -35 -13z"/>
<path d="M11596 2010 c-9 -17 -43 -47 -73 -68 -67 -44 -74 -58 -37 -72 23 -9
31 -7 51 11 12 13 23 27 23 32 0 6 20 32 46 59 42 45 49 68 21 68 -7 0 -21
-14 -31 -30z"/>
<path d="M4188 1588 c-10 -25 6 -45 30 -39 l24 6 -25 23 c-18 17 -26 20 -29
10z"/>
</g>
</svg>
